<svg width="350" height="80" viewBox="0 0 350 80" xmlns="http://www.w3.org/2000/svg">
  <!-- Wisconsin state outline with cannabis leaf -->
  <defs>
    <style>
      .text-dark { fill: #2D5A3D; font-family: Arial, sans-serif; font-weight: 500; }
      .state-fill { fill: #2D5A3D; }
      .leaf-fill { fill: #2D5A3D; }
    </style>
  </defs>
  
  <!-- Wisconsin state shape approximation -->
  <g transform="translate(15, 15)">
    <path d="M10 5 L25 8 L35 4 L45 7 L50 3 L55 12 L58 22 L55 32 L50 42 L45 48 L35 45 L25 48 L15 42 L8 32 L5 22 L7 12 Z" 
          class="state-fill" stroke="none"/>
    
    <!-- Cannabis leaf in center of Wisconsin -->
    <g transform="translate(31, 26) scale(0.6)">
      <!-- Center leaf -->
      <ellipse cx="0" cy="0" rx="2" ry="8" class="leaf-fill"/>
      <!-- Side leaves -->
      <ellipse cx="-4" cy="-2" rx="1.5" ry="6" class="leaf-fill" transform="rotate(-20)"/>
      <ellipse cx="4" cy="-2" rx="1.5" ry="6" class="leaf-fill" transform="rotate(20)"/>
      <ellipse cx="-6" cy="1" rx="1" ry="5" class="leaf-fill" transform="rotate(-40)"/>
      <ellipse cx="6" cy="1" rx="1" ry="5" class="leaf-fill" transform="rotate(40)"/>
      <!-- Stem -->
      <rect x="-0.5" y="8" width="1" height="4" class="leaf-fill"/>
    </g>
  </g>
  
  <!-- Text -->
  <text x="85" y="25" class="text-dark" font-size="16">Wisconsin Coalition</text>
  <text x="85" y="43" class="text-dark" font-size="16">for Cannabis Reform</text>
</svg>